<svg xmlns="http://www.w3.org/2000/svg" xmlns:xlink="http://www.w3.org/1999/xlink" version="1.1" id="Capa_1" x="0px" y="0px" width="100px" height="100px" viewBox="0 0 100 100" enable-background="new 0 0 100 100" xml:space="preserve">
<path fill="#000000" stroke="#1A171B" stroke-width="0.1899" d="M25.438,26.342c2.861-3.043,5.021-2.019,5.951-1.377  c0.534,0.255,1.081,0.636,1.691,1.019l0.344,0.281c0.993,0.892,12.188,13.625,12.188,13.625l13.64,1.572  c3.05,0.269,3.976,0.525,4.128,2.56c0.099,2.374-1.914,2.743-3.537,2.958c-1.624,0.217-10.028-0.198-13.565-0.37  c-2.348-0.049-2.625,0.068-3.772-0.505c-0.765-0.318-9.519-8.504-9.519-8.504s-5.028,16.26-4.008,16.392  c1.02,0.133,15.329,1.489,17.451,4.984c1.898,2.145,5.01,14.626,5.01,14.626l3.72,15.189c0.426,1.924,0.246,4.604-2.113,4.717  c-1.864,0.04-3.582-1.461-4.591-4.591c0,0-8.328-23.585-8.328-23.621c0,0-20.792,1.902-25.013-2.318  c-3.458-7.377,2.521-21.257,2.521-21.257L25.438,26.342z"/>
<path fill="#000000" stroke="#1A171B" stroke-width="0.1899" d="M42.381,16.747L42.381,16.747c0,4.046-3.275,7.315-7.314,7.315  c-4.05,0-7.322-3.269-7.322-7.315c0-4.065,3.272-7.334,7.322-7.334C39.106,9.413,42.381,12.682,42.381,16.747L42.381,16.747z"/>
<path fill="#000000" stroke="#1A171B" stroke-width="0.3907" d="M37.286,66.688c0,0-18.793-0.227-25.241-2.159  c-2.058-0.811-2.997,2.623-2.997,3.196v1.613c0,0.572,0.464,1.037,1.038,1.037h11.616l0.018,0.351  c-0.507,0.327-1.11,0.518-1.757,0.518h-9.337c-1.797,0-3.258-1.461-3.258-3.258V55.18c0-1.087,0.537-2.048,1.358-2.641l0.297,8.018  c0.02,0.54,0.473,0.961,1.013,0.941l1.52-0.056c0.54-0.021,0.961-0.474,0.94-1.014l-0.707-19.097  c-0.021-0.539-0.474-0.96-1.013-0.941l-1.52,0.057c-0.539,0.02-0.96,0.473-0.94,1.012l0.329,8.9  c-1.895,0.782-3.232,2.647-3.232,4.82v12.807c0,2.874,2.339,5.213,5.213,5.213h9.337c0.657,0,1.284-0.127,1.862-0.35l0.516,10.355  h0.76v1.043l-10.874,7.117c-0.243,0.16-0.397,0.403-0.448,0.667c-0.162,0.233-0.258,0.515-0.258,0.82  c0,0.794,0.644,1.438,1.438,1.438c0.795,0,1.438-0.644,1.438-1.438c0-0.137-0.024-0.265-0.059-0.39l8.152-5.337l-1.387,5.61  c-0.395,0.257-0.657,0.699-0.657,1.205c0,0.795,0.644,1.438,1.438,1.438s1.439-0.644,1.439-1.438c0-0.266-0.077-0.511-0.203-0.726  l1.672-6.764l9.235,6.046c-0.037,0.128-0.064,0.261-0.064,0.4c0,0.796,0.645,1.439,1.439,1.439c0.795,0,1.438-0.644,1.438-1.439  c0-0.333-0.118-0.637-0.309-0.88c-0.055-0.259-0.208-0.497-0.446-0.653l-10.913-7.144v-1.017h0.761l0.639-12.829h10.71  c0.573,0,1.038-0.465,1.038-1.037v-1.613C38.324,67.152,37.859,66.688,37.286,66.688z"/>
<rect x="41.45" y="48.185" fill="#000000" width="53.137" height="1.333"/>
<polygon fill="#000000" points="94.587,50.304 41.45,50.304 41.45,53.531 87.034,53.531 87.034,64.091 77.771,70.653 51.239,53.532   45.287,53.532 74.934,72.664 44.901,93.941 50.484,93.941 87.034,68.046 87.034,93.941 90.262,93.941 90.262,53.531 94.587,53.531   "/>
<path fill="#000000" d="M74.472,43.834l-1.914-10.359c-0.624-2.828-2.119-3.743-3.467-3.948l1.984-15.827  c0.06-0.473-0.277-0.905-0.75-0.964l-1.2-0.15c-0.478-0.062-0.907,0.282-0.966,0.75l-3.893,31.048  c-0.06,0.474,0.277,0.906,0.75,0.966l1.2,0.15c0.037,0.005,0.072,0.006,0.108,0.006c0.436,0,0.804-0.324,0.857-0.757l1.737-13.854  c0.84,0.133,1.808,0.705,2.282,2.854l1.908,10.332c0.166,0.923,0.101,1.566-0.192,1.917c-0.339,0.405-1.098,0.593-2.389,0.593  c-0.01,0-0.019,0-0.028,0h-5.249v1.383h5.247c0.013,0,0.024,0,0.036,0c1.187,0,2.637-0.128,3.442-1.087  C74.555,46.199,74.717,45.201,74.472,43.834z M66.175,44.45l-0.857-0.107l3.85-30.706l0.857,0.107L66.175,44.45z"/>
</svg>