<?xml version="1.0" encoding="utf-8"?>
<!-- Generator: Adobe Illustrator 18.0.0, SVG Export Plug-In . SVG Version: 6.00 Build 0)  -->
<!DOCTYPE svg PUBLIC "-//W3C//DTD SVG 1.1//EN" "http://www.w3.org/Graphics/SVG/1.1/DTD/svg11.dtd">
<svg version="1.1" id="Layer_1" xmlns="http://www.w3.org/2000/svg" xmlns:xlink="http://www.w3.org/1999/xlink" x="0px" y="0px"
	 viewBox="0 0 17.8 19.1" enable-background="new 0 0 17.8 19.1" xml:space="preserve">
<g>
	<g>
		<path fill="#AAD8D7" d="M8.4,12.1c0,0-2.1-3.5-2.1-3.5C6,7.7,5.6,6.7,6.3,6.3l-3-5C2.6,1.9,0.4,5,4.5,12.1
			c4.3,7.4,8.3,7.1,9.2,6.6l-2.9-4.9C10.1,14.2,9.5,13.5,8.4,12.1z M15.6,16.8L15.6,16.8c0,0-2.3-3.8-2.3-3.8
			c-0.2-0.3-0.6-0.4-0.9-0.2l-1.4,0.8l2.9,4.9c0,0,1.4-0.8,1.4-0.8l0,0C15.7,17.5,15.8,17.1,15.6,16.8z M8.1,5.3L8.1,5.3
			c0.3-0.2,0.4-0.6,0.2-0.9l0,0c0,0-2.3-3.9-2.3-3.9C5.8,0.2,5.4,0.1,5.1,0.3L3.7,1.1l3,5C6.7,6.1,8.1,5.3,8.1,5.3z"/>
	</g>
</g>
</svg>
