<?xml version="1.0" encoding="utf-8"?>
<!-- Generator: Adobe Illustrator 18.0.0, SVG Export Plug-In . SVG Version: 6.00 Build 0)  -->
<!DOCTYPE svg PUBLIC "-//W3C//DTD SVG 1.1//EN" "http://www.w3.org/Graphics/SVG/1.1/DTD/svg11.dtd">
<svg version="1.1" xmlns="http://www.w3.org/2000/svg" xmlns:xlink="http://www.w3.org/1999/xlink" x="0px" y="0px"
	 viewBox="0 0 100 100" enable-background="new 0 0 100 100" xml:space="preserve">
<g id="Layer_1">
	<path fill="none" stroke="#000000" stroke-width="1.5" stroke-miterlimit="10" d="M41.5,95.5L4.8,58.8c-4.7-4.7-4.7-12.3,0-17
		L41.5,5.1c4.7-4.7,12.3-4.7,17,0l36.7,36.7c4.7,4.7,4.7,12.3,0,17L58.5,95.5C53.8,100.2,46.2,100.2,41.5,95.5z"/>
</g>
<g id="Layer_3" display="none">
	<path display="inline" d="M84.2,50.3c0,2.9-1.1,5.6-3,7.5c-0.3,4.2-3,7.7-6.6,9.2v0c-4.5,2.6-7.2,7.1-8,12.4h-4.1V67.1
		c0-3.9,1.2-6.3,3.8-7.9c0.9-0.5,1.8-1.1,2.5-1.8c1.9,0.7,3.6,2,4.6,3.9c0.2,0.4,0.6,0.6,1,0.6c0.2,0,0.4,0,0.6-0.2
		c0.6-0.3,0.8-1,0.5-1.6h0c-1.2-2.1-3-3.7-5.1-4.6c1.1-1.6,1.6-3.6,1.6-5.9c0,0,0,0,0,0c0-1-0.2-2.1-0.4-3c2.4-0.5,4.6-1.7,6.1-3.4
		c0.4-0.5,0.4-1.2-0.1-1.6c-0.5-0.4-1.2-0.4-1.6,0.1c-1.4,1.5-3.2,2.5-5.3,2.8c-1.7-3.1-4.8-5.3-8.5-5.7c0.2-2,1.1-3.7,2.5-5.1
		c0.4-0.5,0.4-1.2,0-1.6c-0.5-0.5-1.2-0.5-1.6,0c-1.7,1.7-2.9,4-3.2,6.6c-4.3-0.5-7.6-4.2-7.7-8.7c0-0.6-0.5-1.2-1.1-1.2
		c-0.7,0-1.2,0.5-1.2,1.2c0,0.8,0.1,1.5,0.2,2.2c-1.6,1.4-3.7,2.1-5.7,2.1c-1,0-2-0.2-3-0.5c0,0,0,0,0,0c-1.2-0.4-2.2-1.1-3.2-2
		c-0.4-0.5-1.2-0.5-1.6,0c-0.5,0.5-0.5,1.2,0,1.6c1,1,2,1.7,3.2,2.2c-0.2,2.9-1.9,5.4-4.3,6.8c-1.4-2.1-3.4-3.7-5.9-4.5
		c-0.6-0.2-1.3,0.1-1.5,0.8c-0.2,0.6,0.1,1.3,0.8,1.4c1.9,0.6,3.4,1.7,4.4,3.2c-0.7,0.2-1.5,0.3-2.3,0.3c0,0,0,0,0,0h-0.1
		c-3,0-5.7,1.2-7.7,3.1c-0.5,0.4-0.5,1.2,0,1.6c0.2,0.2,0.5,0.3,0.8,0.3c0.3,0,0.6-0.1,0.8-0.3c1.6-1.5,3.7-2.5,6.1-2.5H31h0h0
		c5.6,0,10.2-4.2,10.9-9.5c0.8,0.2,1.6,0.3,2.4,0.3c2.3,0,4.6-0.7,6.5-2.1c0.7,1.6,1.8,3,3.2,4.1c-1.4,1.7-2.2,3.7-2.4,5.8
		c-0.6-0.1-1.2-0.1-1.8-0.1c-1.7,0-3.5,0.4-5.2,1.3c-0.6,0.3-0.8,1-0.5,1.6c0.2,0.4,0.6,0.6,1,0.6c0.2,0,0.4,0,0.5-0.1
		c1.3-0.7,2.7-1,4.1-1c0.6,0,1.2,0.1,1.8,0.2c0.3,2.3,1.3,4.6,3,6.5c0.2,0.2,0.5,0.4,0.8,0.4c0.3,0,0.6-0.1,0.8-0.3
		c0.5-0.4,0.5-1.2,0-1.6h0c-1.6-1.6-2.4-3.7-2.4-5.8c0,0,0-0.1,0-0.1c0,0,0-0.1,0-0.1c0-2,0.7-4.1,2.1-5.7c1.5,0.7,3.2,1.2,4.9,1.2
		c0,0,0,0,0,0c0,0,0,0,0,0c4.8,0,8.7,3.9,8.7,8.7c-0.9-0.2-1.9-0.4-2.8-0.4c-1.4,0-2.8,0.3-4.1,0.8c-0.6,0.2-0.9,0.9-0.6,1.5
		c0.2,0.6,0.9,0.9,1.5,0.6c1.1-0.4,2.2-0.6,3.3-0.6c0.9,0,1.7,0.1,2.6,0.4c-0.3,1.3-0.8,2.3-1.7,3.3c-0.1,0.1-0.1,0.1-0.2,0.2
		c-0.7,0.6-1.5,1.2-2.4,1.8c-3.4,2-5,5.5-4.9,9.9v12.4h-4V67.7c0-4.3-2.7-8.4-6.1-9.9c-1.6-0.6-3.3-1.7-4.6-3.1
		c-1.8,1.2-3.9,1.9-6.2,1.9c-2.3,0-4.4-0.7-6.2-1.9c-1.7,1.1-3.9,1.8-6.1,1.8c-6.2,0-11.2-5-11.2-11.2c0-4.6,2.8-8.6,6.8-10.3
		c1.1-4.9,5.5-8.6,10.7-8.6c0.3,0,0.5,0,0.8,0c2-2.9,5.3-4.8,9.1-4.8c1.9,0,3.6,0.5,5.2,1.3c1.7-1.2,3.8-1.8,6.1-1.8
		c2.9,0,5.5,1.1,7.5,2.9c0.8-0.2,1.7-0.3,2.6-0.3c4.4,0,8.3,2.7,10,6.5c4.5,1.4,7.8,5.6,7.8,10.5c0,1-0.1,2-0.4,2.9
		C83.4,45.4,84.2,47.8,84.2,50.3z"/>
</g>
<g id="Layer_2" display="none">
	<g display="inline">
		<path stroke="#1A171B" stroke-width="0.1899" d="M44.7,23L44.7,23c0,2.5-2.1,4.6-4.6,4.6c-2.5,0-4.6-2.1-4.6-4.6
			c0-2.6,2.1-4.6,4.6-4.6C42.7,18.4,44.7,20.5,44.7,23L44.7,23z"/>
		<g>
			<path stroke="#1A171B" stroke-width="0.1899" d="M34.1,29.1c1.8-1.9,3.2-1.3,3.7-0.9c0.3,0.2,0.7,0.4,1.1,0.6l0.2,0.2
				c0.6,0.6,7.7,8.6,7.7,8.6l8.6,1c1.9,0.2,2.5,0.3,2.6,1.6c0.1,1.5-1.2,1.7-2.2,1.9c-1,0.1-6.3-0.1-8.5-0.2c-1.5,0-1.7,0-2.4-0.3
				c-0.5-0.2-6-5.4-6-5.4s-3.2,10.2-2.5,10.3c0.6,0.1,9.6,0.9,11,3.1c1.2,1.3,3.2,9.2,3.2,9.2l2.3,9.6c0.3,1.2,0.2,2.9-1.3,3
				c-1.2,0-2.3-0.9-2.9-2.9c0,0-5.2-14.8-5.2-14.9c0,0-13.1,1.2-15.7-1.5c-2.2-4.6,1.6-13.4,1.6-13.4L34.1,29.1z"/>
			<path stroke="#1A171B" stroke-width="0.3907" d="M41.5,54.5c0,0-11.8-0.1-15.9-1.4c-1.3-0.5-1.9,1.7-1.9,2v1
				c0,0.4,0.3,0.7,0.7,0.7h7.3l0,0.2c-0.3,0.2-0.7,0.3-1.1,0.3h-5.9c-1.1,0-2.1-0.9-2.1-2.1v-8.1c0-0.7,0.3-1.3,0.9-1.7l0.2,5
				c0,0.3,0.3,0.6,0.6,0.6l1,0c0.3,0,0.6-0.3,0.6-0.6l-0.4-12c0-0.3-0.3-0.6-0.6-0.6l-1,0c-0.3,0-0.6,0.3-0.6,0.6l0.2,5.6
				c-1.2,0.5-2,1.7-2,3v8.1c0,1.8,1.5,3.3,3.3,3.3h5.9c0.4,0,0.8-0.1,1.2-0.2l0.3,6.5h0.5v0.7L25.8,70c-0.2,0.1-0.2,0.3-0.3,0.4
				c-0.1,0.1-0.2,0.3-0.2,0.5c0,0.5,0.4,0.9,0.9,0.9c0.5,0,0.9-0.4,0.9-0.9c0-0.1,0-0.2,0-0.2l5.1-3.4l-0.9,3.5
				c-0.2,0.2-0.4,0.4-0.4,0.8c0,0.5,0.4,0.9,0.9,0.9s0.9-0.4,0.9-0.9c0-0.2,0-0.3-0.1-0.5l1.1-4.3l5.8,3.8c0,0.1,0,0.2,0,0.3
				c0,0.5,0.4,0.9,0.9,0.9c0.5,0,0.9-0.4,0.9-0.9c0-0.2-0.1-0.4-0.2-0.6c0-0.2-0.1-0.3-0.3-0.4l-6.9-4.5v-0.6h0.5l0.4-8.1h6.7
				c0.4,0,0.7-0.3,0.7-0.7v-1C42.2,54.7,41.9,54.5,41.5,54.5z"/>
			<rect x="44.2" y="42.8" width="33.4" height="0.8"/>
			<polygon points="77.6,44.1 44.2,44.1 44.2,46.2 72.8,46.2 72.8,52.8 67,56.9 50.3,46.2 46.6,46.2 65.2,58.2 46.3,71.6 49.8,71.6 
				72.8,55.3 72.8,71.6 74.9,71.6 74.9,46.2 77.6,46.2 			"/>
			<path d="M64.9,40.1l-1.2-6.5c-0.4-1.8-1.3-2.4-2.2-2.5l1.2-10c0-0.3-0.2-0.6-0.5-0.6l-0.8-0.1c-0.3,0-0.6,0.2-0.6,0.5l-2.4,19.5
				c0,0.3,0.2,0.6,0.5,0.6l0.8,0.1c0,0,0,0,0.1,0c0.3,0,0.5-0.2,0.5-0.5l1.1-8.7c0.5,0.1,1.1,0.4,1.4,1.8l1.2,6.5
				c0.1,0.6,0.1,1-0.1,1.2c-0.2,0.3-0.7,0.4-1.5,0.4c0,0,0,0,0,0h-3.3v0.9h3.3c0,0,0,0,0,0c0.7,0,1.7-0.1,2.2-0.7
				C65,41.6,65.1,40.9,64.9,40.1z M59.7,40.5l-0.5-0.1l2.4-19.3l0.5,0.1L59.7,40.5z"/>
		</g>
	</g>
</g>
<g id="Layer_4">
	<g id="Your_Icon">
		<path d="M72,35.7v-6.1H53.1v6.1h-6.1v-6.1H28v6.1h-1.3h-4.2V54h4.2H28v6.7h6.1v5.5h6.1v6.7h6.1v5.5h7.3v-5.5h6.1v-6.7h0.5h5.6
			v-5.5H72V54h1.3h4.2V35.7 M36,42.4v6.6h-7.3v-6.6v-6.2H36V42.4z"/>
	</g>
</g>
</svg>
