<?xml version="1.0" encoding="utf-8"?>
<!-- Generator: Adobe Illustrator 18.0.0, SVG Export Plug-In . SVG Version: 6.00 Build 0)  -->
<!DOCTYPE svg PUBLIC "-//W3C//DTD SVG 1.1//EN" "http://www.w3.org/Graphics/SVG/1.1/DTD/svg11.dtd">
<svg version="1.1" id="Layer_1" xmlns="http://www.w3.org/2000/svg" xmlns:xlink="http://www.w3.org/1999/xlink" x="0px" y="0px"
	 viewBox="0 0 333 333" enable-background="new 0 0 333 333" xml:space="preserve">
<g>
	<path d="M321,4c4.4,0,8,3.6,8,8v309c0,4.4-3.6,8-8,8H12c-4.4,0-8-3.6-8-8V12c0-4.4,3.6-8,8-8H321 M321,0H12C5.4,0,0,5.4,0,12v309
		c0,6.6,5.4,12,12,12h309c6.6,0,12-5.4,12-12V12C333,5.4,327.6,0,321,0L321,0z"/>
</g>
</svg>
