<?xml version="1.0" encoding="utf-8"?>
<!-- Generator: Adobe Illustrator 18.0.0, SVG Export Plug-In . SVG Version: 6.00 Build 0)  -->
<!DOCTYPE svg PUBLIC "-//W3C//DTD SVG 1.1//EN" "http://www.w3.org/Graphics/SVG/1.1/DTD/svg11.dtd">
<svg version="1.1" id="Layer_1" xmlns="http://www.w3.org/2000/svg" xmlns:xlink="http://www.w3.org/1999/xlink" x="0px" y="0px"
	 viewBox="0 0 17.8 19.1" enable-background="new 0 0 17.8 19.1" xml:space="preserve">
<path fill="#2A5077" d="M17.8,3.7c-0.6,0.3-1.3,0.5-2.1,0.6c0.7-0.4,1.3-1.2,1.6-2c-0.7,0.4-1.5,0.7-2.3,0.9C14.4,2.4,13.5,2,12.4,2
	c-2,0-3.6,1.6-3.6,3.6c0,0.3,0,0.6,0.1,0.8c-3-0.2-5.7-1.6-7.4-3.8C1.2,3.2,1,3.8,1,4.5c0,1.3,0.6,2.4,1.6,3C2,7.4,1.5,7.3,1,7
	c0,0,0,0,0,0c0,1.7,1.2,3.2,2.9,3.5c-0.3,0.1-0.6,0.1-0.9,0.1c-0.2,0-0.5,0-0.7-0.1c0.5,1.4,1.8,2.5,3.4,2.5c-1.2,1-2.8,1.5-4.5,1.5
	c-0.3,0-0.6,0-0.9-0.1c1.6,1,3.5,1.6,5.5,1.6c6.6,0,10.3-5.5,10.3-10.3c0-0.2,0-0.3,0-0.5C16.7,5,17.4,4.4,17.8,3.7z"/>
</svg>
